<svg width="65" height="65" viewBox="0 0 65 65" fill="none" xmlns="http://www.w3.org/2000/svg">
<path d="M0 32.5C0 14.5507 14.5507 0 32.5 0C50.4493 0 65 14.5507 65 32.5C65 50.4493 50.4493 65 32.5 65H0V32.5Z" fill="#66CCA1"/>
<path d="M38.8205 48.2706V42.5152C38.8763 41.8061 38.7805 41.0932 38.5395 40.4239C38.2985 39.7547 37.9177 39.1444 37.4226 38.6337C42.0923 38.1132 47 36.3434 47 28.2234C46.9996 26.1471 46.201 24.1503 44.7693 22.6465C45.4472 20.8299 45.3993 18.822 44.6354 17.0398C44.6354 17.0398 42.8805 16.5193 38.8205 19.2409C35.4119 18.3171 31.8189 18.3171 28.4103 19.2409C24.3503 16.5193 22.5954 17.0398 22.5954 17.0398C21.8316 18.822 21.7836 20.8299 22.4616 22.6465C21.0192 24.1615 20.2197 26.1763 20.2308 28.2681C20.2308 36.3286 25.1385 38.0983 29.8082 38.6783C29.3189 39.1839 28.9416 39.7869 28.7007 40.4479C28.4599 41.109 28.3609 41.8134 28.4103 42.5152V48.2706M28.4103 43.8091C20.9744 46.0398 20.9744 40.0911 18 39.3475L28.4103 43.8091Z" stroke="#323237" stroke-width="2.7" stroke-linecap="round" stroke-linejoin="round"/>
</svg>
