<svg width="182" height="65" viewBox="0 0 182 65" fill="none" xmlns="http://www.w3.org/2000/svg">
<g clip-path="url(#clip0_111_70)">
<path d="M90.6494 21.0722L99.3042 20.5324C99.4929 21.9305 99.8748 22.9949 100.45 23.7256C101.389 24.91 102.728 25.5022 104.466 25.5022C105.763 25.5022 106.764 25.2001 107.468 24.5959C107.791 24.3451 108.053 24.0256 108.235 23.661C108.418 23.2965 108.516 22.896 108.522 22.4889C108.516 22.0986 108.425 21.7143 108.255 21.3627C108.084 21.0112 107.838 20.701 107.534 20.4539C106.876 19.8562 105.323 19.2902 102.876 18.7558C98.8861 17.8659 96.0407 16.6815 94.3398 15.2027C93.5121 14.5137 92.8512 13.6483 92.4061 12.6707C91.961 11.6931 91.7431 10.6284 91.7687 9.55564C91.775 8.0397 92.2332 6.55961 93.0855 5.30236C94.0589 3.88534 95.4339 2.78759 97.0359 2.14839C98.7917 1.3828 101.206 1 104.278 1C108.04 1 110.909 1.69579 112.884 3.08738C114.859 4.47897 116.034 6.69068 116.41 9.7225L107.834 10.2198C107.614 8.91111 107.136 7.95357 106.398 7.34721C105.661 6.74084 104.652 6.43875 103.37 6.44093C102.313 6.44093 101.516 6.66668 100.983 7.11164C100.731 7.30415 100.528 7.55203 100.388 7.83585C100.249 8.11967 100.178 8.43172 100.18 8.74752C100.188 8.99259 100.251 9.23273 100.365 9.4502C100.479 9.66766 100.641 9.85689 100.838 10.0039C101.266 10.3899 102.283 10.7498 103.89 11.0836C107.867 11.9342 110.72 12.7958 112.449 13.6682C114.179 14.5407 115.43 15.6215 116.202 16.9106C116.991 18.2182 117.397 19.718 117.377 21.2424C117.387 23.0881 116.842 24.8947 115.814 26.4314C114.743 28.0336 113.22 29.2857 111.435 30.0303C109.559 30.8482 107.195 31.2572 104.344 31.2572C99.3382 31.2572 95.8706 30.2997 93.9414 28.3846C92.0123 26.4695 90.915 24.0321 90.6494 21.0722ZM2.0641 30.7664V1.49404H17.2272C20.0386 1.49404 22.1872 1.73287 23.673 2.21055C25.1366 2.67513 26.4019 3.61252 27.2679 4.87376C28.2105 6.27366 28.6904 7.93084 28.6407 9.61454C28.6789 11.0838 28.3147 12.5358 27.5872 13.8155C26.8891 15.0017 25.9005 15.9933 24.7133 16.6979C23.7152 17.245 22.6381 17.6357 21.52 17.8561C22.3566 18.1009 23.1537 18.4634 23.887 18.9325C24.432 19.3827 24.9225 19.8944 25.3486 20.4571C25.8281 21.0164 26.2525 21.6201 26.6161 22.2599L31.0208 30.7664H20.7398L15.8808 21.8116C15.2641 20.6534 14.7154 19.9009 14.2347 19.5541C13.5798 19.103 12.7995 18.8663 12.0028 18.8769H11.1929V30.7664H2.0641ZM11.1929 13.3476H15.038C15.8517 13.2872 16.6583 13.1536 17.4478 12.9485C18.0377 12.836 18.5639 12.508 18.9226 12.0291C19.3019 11.5454 19.504 10.9476 19.4954 10.3343C19.5202 9.92721 19.4515 9.51982 19.2947 9.14291C19.1379 8.76601 18.897 8.42944 18.5901 8.1586C17.9888 7.65257 16.8574 7.39956 15.196 7.39956H11.1929V13.3476ZM0 55.815L8.65475 55.2784C8.8435 56.6766 9.22537 57.741 9.80038 58.4717C10.7287 59.6561 12.0708 60.2482 13.8265 60.2482C15.1236 60.2482 16.1244 59.9451 16.8289 59.3387C17.1515 59.0878 17.4136 58.7684 17.5958 58.4038C17.7781 58.0392 17.876 57.6387 17.8823 57.2317C17.8765 56.8415 17.7852 56.4573 17.6146 56.1058C17.444 55.7543 17.1983 55.4441 16.8947 55.1967C16.2363 54.599 14.6836 54.0341 12.2365 53.5019C8.24654 52.6076 5.40113 51.4232 3.70024 49.9488C2.87267 49.2589 2.21187 48.3929 1.7668 47.4148C1.32174 46.4367 1.10381 45.3716 1.12917 44.2984C1.13645 42.7826 1.5946 41.3028 2.44598 40.0452C3.41936 38.6281 4.79432 37.5304 6.39642 36.8912C8.15217 36.1256 10.5663 35.7428 13.6389 35.7428C17.4006 35.7428 20.269 36.4386 22.2443 37.8302C24.2195 39.2218 25.3947 41.4335 25.77 44.4653L17.2107 44.9659C16.9913 43.6572 16.5128 42.6985 15.7754 42.09C15.038 41.4815 14.0295 41.1826 12.75 41.1935C11.6944 41.1935 10.8988 41.4117 10.3633 41.8479C10.1114 42.0404 9.9078 42.2883 9.76844 42.5721C9.62907 42.8559 9.55775 43.168 9.56006 43.4838C9.56757 43.7294 9.63065 43.9702 9.74464 44.1882C9.85862 44.4063 10.0206 44.5961 10.2185 44.7434C10.6464 45.1295 11.6637 45.4883 13.2702 45.8198C17.247 46.6705 20.1001 47.532 21.8295 48.4045C23.5589 49.277 24.8099 50.3577 25.5824 51.6468C26.3703 52.9547 26.7772 54.4544 26.7576 55.9786C26.7675 57.8244 26.2231 59.6311 25.1939 61.1676C24.1232 62.7698 22.5999 64.0219 20.8155 64.7665C18.9391 65.5845 16.5754 65.9935 13.7245 65.9935C8.7184 65.9935 5.25079 65.0359 3.32166 63.1208C1.39253 61.2058 0.285309 58.7705 0 55.815ZM53.6601 53.5215L61.6334 55.9164C61.1925 57.9267 60.3298 59.822 59.1019 61.4784C57.9829 62.9421 56.5111 64.1021 54.8222 64.8516C53.1147 65.6085 50.942 65.9869 48.304 65.9869C45.1041 65.9869 42.4903 65.5256 40.4624 64.603C38.4345 63.6803 36.6787 62.0543 35.1951 59.7248C33.7203 57.3975 32.984 54.4191 32.9862 50.7896C32.9862 45.9518 34.281 42.2318 36.8708 39.6296C39.4605 37.0275 43.1256 35.7275 47.8661 35.7297C51.5774 35.7297 54.493 36.4757 56.6131 37.9676C58.7332 39.4595 60.3089 41.7497 61.3404 44.8383L53.3079 46.6148C53.1193 45.9185 52.8215 45.2561 52.4256 44.6518C51.9391 43.9805 51.2994 43.4333 50.559 43.0552C49.7917 42.6752 48.944 42.4833 48.0867 42.4957C46.0259 42.4957 44.4468 43.3202 43.3495 44.9691C42.5155 46.1928 42.0996 48.1133 42.1018 50.7307C42.1018 53.9719 42.5978 56.1945 43.5898 57.3985C44.5818 58.6026 45.9743 59.2035 47.7674 59.2013C49.5056 59.2013 50.8224 58.716 51.7178 57.7454C52.6133 56.7747 53.2607 55.3668 53.6601 53.5215ZM68.6422 36.2368H77.7381V46.4709H87.68V36.2368H96.8154V65.4961H87.68V53.6687H77.7381V65.506H68.6422V36.2368ZM102.478 50.8845C102.478 46.1121 103.816 42.3932 106.494 39.7278C109.171 37.0624 112.902 35.7319 117.687 35.7362C122.585 35.7362 126.36 37.0449 129.011 39.6624C131.663 42.2798 132.992 45.9409 132.998 50.6456C132.998 54.0679 132.419 56.8729 131.26 59.0606C130.132 61.2195 128.385 62.997 126.24 64.1678C124.045 65.3849 121.317 65.9935 118.056 65.9935C114.737 65.9935 111.994 65.4678 109.825 64.4165C107.598 63.3193 105.754 61.5806 104.535 59.427C103.161 57.1543 102.475 54.3067 102.478 50.8845ZM111.574 50.927C111.574 53.8825 112.122 56.0048 113.22 57.2938C114.317 58.5829 115.82 59.2275 117.73 59.2275C119.685 59.2275 121.198 58.596 122.269 57.3331C123.34 56.0702 123.876 53.8018 123.876 50.5279C123.876 47.773 123.316 45.7598 122.197 44.4882C121.078 43.2166 119.561 42.5819 117.647 42.584C116.815 42.5543 115.987 42.7119 115.225 43.045C114.463 43.3782 113.786 43.8782 113.246 44.5078C112.133 45.8165 111.576 47.9563 111.574 50.927Z" fill="black"/>
<path d="M129.14 50.8845C129.14 46.1121 130.479 42.3932 133.156 39.7278C135.834 37.0624 139.565 35.7319 144.349 35.7362C149.252 35.7362 153.028 37.0449 155.677 39.6623C158.326 42.2797 159.65 45.9419 159.65 50.6489C159.65 54.0711 159.072 56.8761 157.916 59.0638C156.787 61.2221 155.04 62.9993 152.895 64.1711C150.701 65.3882 147.973 65.9967 144.711 65.9967C141.391 65.9967 138.647 65.471 136.481 64.4197C134.253 63.3217 132.409 61.5833 131.188 59.4303C129.822 57.1553 129.14 54.3067 129.14 50.8845ZM138.239 50.927C138.239 53.8825 138.788 56.0048 139.885 57.2938C140.982 58.5829 142.488 59.2285 144.402 59.2307C146.357 59.2307 147.87 58.5993 148.941 57.3364C150.012 56.0735 150.548 53.805 150.548 50.5311C150.548 47.7763 149.989 45.7631 148.872 44.4914C147.755 43.2198 146.239 42.5851 144.323 42.5873C143.489 42.5554 142.659 42.7116 141.895 43.0443C141.131 43.3769 140.453 43.8773 139.911 44.5078C138.794 45.8165 138.237 47.9562 138.239 50.927Z" fill="black"/>
<path d="M158.702 36.2368H167.802V58.2917H182V65.4896H158.702V36.2368Z" fill="black"/>
</g>
<defs>
<clipPath id="clip0_111_70">
<rect width="182" height="65" fill="white"/>
</clipPath>
</defs>
</svg>
