<svg width="65" height="65" viewBox="0 0 65 65" fill="none" xmlns="http://www.w3.org/2000/svg">
<path d="M0 32.5C0 14.5507 14.5507 0 32.5 0C50.4493 0 65 14.5507 65 32.5C65 50.4493 50.4493 65 32.5 65H0V32.5Z" fill="#66CCA1"/>
<path d="M43.5569 18.003C43.1494 18.0327 42.7494 18.1283 42.3725 18.2861H42.3674C42.0056 18.4296 40.2854 19.1532 37.6702 20.2501L28.2985 24.197C21.5739 27.0281 14.9635 29.8159 14.9635 29.8159L15.0422 29.7855C15.0422 29.7855 14.5864 29.9353 14.1104 30.2615C13.8163 30.4487 13.5632 30.6936 13.3664 30.9814C13.1328 31.3241 12.9449 31.8484 13.0148 32.3905C13.129 33.3071 13.7232 33.8568 14.1497 34.1602C14.5814 34.4675 14.9927 34.6109 14.9927 34.6109H15.0028L21.2019 36.6993C21.4799 37.5918 23.091 42.8882 23.4782 44.1082C23.7067 44.8369 23.9288 45.2927 24.2069 45.6405C24.3414 45.8183 24.4989 45.9668 24.688 46.0861C24.7864 46.1433 24.8912 46.1885 25.0003 46.2207L24.9368 46.2055C24.9559 46.2106 24.9711 46.2258 24.9851 46.2309C25.0359 46.2448 25.0701 46.2499 25.1349 46.2601C26.1162 46.5571 26.9046 45.9478 26.9046 45.9478L26.949 45.9122L30.6091 42.5797L36.7434 47.2858L36.8831 47.3455C38.1615 47.9066 39.4564 47.5943 40.1406 47.0434C40.83 46.4886 41.0979 45.7789 41.0979 45.7789L41.1423 45.6647L45.8827 21.38C46.0173 20.7808 46.0515 20.2196 45.903 19.675C45.7498 19.1238 45.3962 18.6497 44.9115 18.3458C44.5045 18.0984 44.0326 17.979 43.5569 18.003ZM43.4287 20.6056C43.4236 20.6855 43.4389 20.6766 43.4033 20.8303V20.8442L38.7074 44.8763C38.687 44.9106 38.6528 44.9855 38.5588 45.0604C38.4598 45.1391 38.3811 45.1886 37.9685 45.0248L30.4656 39.2726L25.9334 43.4036L26.8856 37.3226L39.1441 25.8969C39.6493 25.4272 39.4805 25.3282 39.4805 25.3282C39.516 24.7518 38.7175 25.1593 38.7175 25.1593L23.2598 34.7353L23.2547 34.7099L15.8458 32.2153V32.2103L15.8268 32.2065C15.8397 32.2021 15.8525 32.1971 15.8648 32.1912L15.9055 32.1709L15.9448 32.1569C15.9448 32.1569 22.5603 29.3691 29.285 26.538C32.6517 25.12 36.0439 23.6918 38.6528 22.5898C41.2616 21.4942 43.19 20.6906 43.2992 20.6475C43.4033 20.6068 43.3538 20.6068 43.4287 20.6068V20.6056Z" fill="#323237"/>
</svg>
